<svg width="92" height="92" viewBox="0 0 92 92" fill="none" xmlns="http://www.w3.org/2000/svg">
<rect width="92" height="92" rx="46" fill="#0D0B0B" fill-opacity="0.08"/>
<path d="M33.9713 44.8552C33.9713 38.6708 33.9713 35.5786 35.8849 33.6573C37.7984 31.7361 40.8783 31.7361 47.038 31.7361H53.5713C59.731 31.7361 62.8107 31.7361 64.7245 33.6573C66.638 35.5786 66.638 38.6708 66.638 44.8552V55.7879C66.638 61.9724 66.638 65.0646 64.7245 66.9858C62.8107 68.907 59.731 68.907 53.5713 68.907H47.038C40.8783 68.907 37.7984 68.907 35.8849 66.9858C33.9713 65.0646 33.9713 61.9724 33.9713 55.7879V44.8552Z" fill="url(#paint0_linear_44_272)"/>
<path opacity="0.5" d="M28.4633 26.1947C25.8055 28.8525 25.8055 33.13 25.8055 41.6851V46.2222C25.8055 54.7772 25.8055 59.055 28.4633 61.7125C29.8642 63.1136 31.7153 63.776 34.4056 64.0893C33.9713 62.1819 33.9713 59.5602 33.9713 55.7878V44.8552C33.9713 38.6707 33.9713 35.5785 35.8849 33.6573C37.7985 31.736 40.8783 31.736 47.038 31.736H53.5713C57.3187 31.736 59.9261 31.736 61.8244 32.1686C61.5127 29.4611 60.8505 27.6011 59.444 26.1947C56.7865 23.537 52.5087 23.537 43.9537 23.537C35.3986 23.537 31.121 23.537 28.4633 26.1947Z" fill="url(#paint1_linear_44_272)"/>
<defs>
<linearGradient id="paint0_linear_44_272" x1="34.7426" y1="31.7361" x2="66.7662" y2="32.0163" gradientUnits="userSpaceOnUse">
<stop stop-color="#00801E"/>
<stop offset="1" stop-color="#2FFF00"/>
</linearGradient>
<linearGradient id="paint1_linear_44_272" x1="26.656" y1="23.537" x2="61.9657" y2="23.8493" gradientUnits="userSpaceOnUse">
<stop stop-color="#00801E"/>
<stop offset="1" stop-color="#2FFF00"/>
</linearGradient>
</defs>
</svg>
