<svg width="73" height="30" viewBox="0 0 73 30" fill="none" xmlns="http://www.w3.org/2000/svg">
<path d="M0.880682 11V3.72727H3.33807C3.90862 3.72727 4.375 3.83026 4.73722 4.03622C5.1018 4.23982 5.37169 4.51562 5.54688 4.86364C5.72206 5.21165 5.80966 5.59991 5.80966 6.02841C5.80966 6.45691 5.72206 6.84635 5.54688 7.19673C5.37405 7.54711 5.10653 7.82647 4.74432 8.0348C4.3821 8.24077 3.91809 8.34375 3.35227 8.34375H1.59091V7.5625H3.32386C3.71449 7.5625 4.02817 7.49503 4.26491 7.36009C4.50166 7.22514 4.6733 7.04285 4.77983 6.81321C4.88873 6.5812 4.94318 6.3196 4.94318 6.02841C4.94318 5.73722 4.88873 5.4768 4.77983 5.24716C4.6733 5.01752 4.50047 4.83759 4.26136 4.70739C4.02225 4.57481 3.70502 4.50852 3.30966 4.50852H1.76136V11H0.880682ZM9.27202 11.1136C8.77959 11.1136 8.34754 10.9964 7.97585 10.7621C7.60653 10.5277 7.31771 10.1998 7.10938 9.77841C6.90341 9.35701 6.80043 8.86458 6.80043 8.30114C6.80043 7.73295 6.90341 7.23698 7.10938 6.81321C7.31771 6.38944 7.60653 6.06037 7.97585 5.82599C8.34754 5.59162 8.77959 5.47443 9.27202 5.47443C9.76444 5.47443 10.1953 5.59162 10.5646 5.82599C10.9363 6.06037 11.2251 6.38944 11.4311 6.81321C11.6394 7.23698 11.7436 7.73295 11.7436 8.30114C11.7436 8.86458 11.6394 9.35701 11.4311 9.77841C11.2251 10.1998 10.9363 10.5277 10.5646 10.7621C10.1953 10.9964 9.76444 11.1136 9.27202 11.1136ZM9.27202 10.3608C9.64607 10.3608 9.95384 10.2649 10.1953 10.0732C10.4368 9.88139 10.6155 9.62926 10.7315 9.31676C10.8475 9.00426 10.9055 8.66572 10.9055 8.30114C10.9055 7.93655 10.8475 7.59683 10.7315 7.28196C10.6155 6.96709 10.4368 6.71259 10.1953 6.51847C9.95384 6.32434 9.64607 6.22727 9.27202 6.22727C8.89796 6.22727 8.5902 6.32434 8.34872 6.51847C8.10724 6.71259 7.9285 6.96709 7.8125 7.28196C7.6965 7.59683 7.63849 7.93655 7.63849 8.30114C7.63849 8.66572 7.6965 9.00426 7.8125 9.31676C7.9285 9.62926 8.10724 9.88139 8.34872 10.0732C8.5902 10.2649 8.89796 10.3608 9.27202 10.3608ZM14.0732 11L12.4112 5.54545H13.2919L14.4709 9.72159H14.5277L15.6925 5.54545H16.5874L17.7379 9.70739H17.7947L18.9737 5.54545H19.8544L18.1925 11H17.3686L16.1754 6.80966H16.0902L14.897 11H14.0732ZM23.0637 11.1136C22.5382 11.1136 22.0848 10.9976 21.7037 10.7656C21.3249 10.5312 21.0325 10.2045 20.8265 9.78551C20.6229 9.36411 20.5211 8.87405 20.5211 8.31534C20.5211 7.75663 20.6229 7.2642 20.8265 6.83807C21.0325 6.40956 21.319 6.07576 21.6859 5.83665C22.0552 5.59517 22.4861 5.47443 22.9785 5.47443C23.2626 5.47443 23.5431 5.52178 23.8201 5.61648C24.0971 5.71117 24.3493 5.86506 24.5765 6.07812C24.8038 6.28883 24.9849 6.56818 25.1199 6.91619C25.2548 7.2642 25.3223 7.69271 25.3223 8.2017V8.55682H21.1177V7.83239H24.47C24.47 7.52462 24.4084 7.25 24.2853 7.00852C24.1646 6.76705 23.9918 6.57647 23.7669 6.43679C23.5443 6.29711 23.2815 6.22727 22.9785 6.22727C22.6447 6.22727 22.3559 6.31013 22.112 6.47585C21.8706 6.6392 21.6847 6.85227 21.5545 7.11506C21.4243 7.37784 21.3592 7.65956 21.3592 7.96023V8.44318C21.3592 8.85511 21.4302 9.20431 21.5723 9.49077C21.7167 9.77486 21.9167 9.99148 22.1724 10.1406C22.4281 10.2874 22.7252 10.3608 23.0637 10.3608C23.2839 10.3608 23.4828 10.33 23.6603 10.2685C23.8403 10.2045 23.9953 10.1098 24.1255 9.98438C24.2557 9.85653 24.3564 9.69792 24.4274 9.50852L25.237 9.7358C25.1518 10.0104 25.0086 10.2519 24.8074 10.4602C24.6061 10.6662 24.3575 10.8272 24.0616 10.9432C23.7657 11.0568 23.4331 11.1136 23.0637 11.1136ZM26.5971 11V5.54545H27.4068V6.36932H27.4636C27.563 6.09943 27.743 5.88045 28.0034 5.71236C28.2638 5.54427 28.5574 5.46023 28.8841 5.46023C28.9456 5.46023 29.0225 5.46141 29.1149 5.46378C29.2072 5.46615 29.277 5.4697 29.3244 5.47443V6.3267C29.296 6.3196 29.2309 6.30895 29.1291 6.29474C29.0297 6.27817 28.9243 6.26989 28.813 6.26989C28.5479 6.26989 28.3111 6.32552 28.1028 6.43679C27.8968 6.54569 27.7335 6.69721 27.6127 6.89134C27.4944 7.0831 27.4352 7.30208 27.4352 7.5483V11H26.5971ZM32.4387 11.1136C31.9132 11.1136 31.4598 10.9976 31.0787 10.7656C30.6999 10.5312 30.4075 10.2045 30.2015 9.78551C29.9979 9.36411 29.8961 8.87405 29.8961 8.31534C29.8961 7.75663 29.9979 7.2642 30.2015 6.83807C30.4075 6.40956 30.694 6.07576 31.0609 5.83665C31.4302 5.59517 31.8611 5.47443 32.3535 5.47443C32.6376 5.47443 32.9181 5.52178 33.1951 5.61648C33.4721 5.71117 33.7243 5.86506 33.9515 6.07812C34.1788 6.28883 34.3599 6.56818 34.4949 6.91619C34.6298 7.2642 34.6973 7.69271 34.6973 8.2017V8.55682H30.4927V7.83239H33.845C33.845 7.52462 33.7834 7.25 33.6603 7.00852C33.5396 6.76705 33.3668 6.57647 33.1419 6.43679C32.9193 6.29711 32.6565 6.22727 32.3535 6.22727C32.0197 6.22727 31.7309 6.31013 31.487 6.47585C31.2456 6.6392 31.0597 6.85227 30.9295 7.11506C30.7993 7.37784 30.7342 7.65956 30.7342 7.96023V8.44318C30.7342 8.85511 30.8052 9.20431 30.9473 9.49077C31.0917 9.77486 31.2917 9.99148 31.5474 10.1406C31.8031 10.2874 32.1002 10.3608 32.4387 10.3608C32.6589 10.3608 32.8578 10.33 33.0353 10.2685C33.2153 10.2045 33.3703 10.1098 33.5005 9.98438C33.6307 9.85653 33.7314 9.69792 33.8024 9.50852L34.612 9.7358C34.5268 10.0104 34.3836 10.2519 34.1824 10.4602C33.9811 10.6662 33.7325 10.8272 33.4366 10.9432C33.1407 11.0568 32.8081 11.1136 32.4387 11.1136ZM38.0318 11.1136C37.5772 11.1136 37.176 10.9988 36.8279 10.7692C36.4799 10.5372 36.2077 10.2105 36.0112 9.78906C35.8147 9.36529 35.7164 8.86458 35.7164 8.28693C35.7164 7.71402 35.8147 7.21686 36.0112 6.79545C36.2077 6.37405 36.4811 6.04853 36.8315 5.81889C37.1819 5.58925 37.5867 5.47443 38.046 5.47443C38.4011 5.47443 38.6816 5.53362 38.8876 5.65199C39.0959 5.76799 39.2546 5.90057 39.3635 6.04972C39.4747 6.1965 39.5611 6.31723 39.6227 6.41193H39.6937V3.72727H40.5318V11H39.7221V10.1619H39.6227C39.5611 10.2614 39.4735 10.3868 39.3599 10.5384C39.2463 10.6875 39.0841 10.8213 38.8734 10.9396C38.6627 11.0556 38.3822 11.1136 38.0318 11.1136ZM38.1454 10.3608C38.4816 10.3608 38.7657 10.2732 38.9977 10.098C39.2297 9.92045 39.4061 9.67543 39.5268 9.36293C39.6475 9.04806 39.7079 8.68466 39.7079 8.27273C39.7079 7.86553 39.6487 7.50923 39.5304 7.20384C39.412 6.89607 39.2368 6.65696 39.0048 6.48651C38.7728 6.31368 38.4863 6.22727 38.1454 6.22727C37.7903 6.22727 37.4944 6.31842 37.2576 6.50071C37.0233 6.68063 36.8469 6.92566 36.7285 7.2358C36.6125 7.54356 36.5545 7.8892 36.5545 8.27273C36.5545 8.66098 36.6137 9.01373 36.7321 9.33097C36.8528 9.64583 37.0304 9.89678 37.2647 10.0838C37.5015 10.2685 37.795 10.3608 38.1454 10.3608ZM45.1092 11V3.72727H45.9473V6.41193H46.0183C46.0798 6.31723 46.1651 6.1965 46.274 6.04972C46.3852 5.90057 46.5439 5.76799 46.7498 5.65199C46.9582 5.53362 47.2399 5.47443 47.595 5.47443C48.0543 5.47443 48.4591 5.58925 48.8095 5.81889C49.1599 6.04853 49.4333 6.37405 49.6298 6.79545C49.8263 7.21686 49.9245 7.71402 49.9245 8.28693C49.9245 8.86458 49.8263 9.36529 49.6298 9.78906C49.4333 10.2105 49.161 10.5372 48.813 10.7692C48.465 10.9988 48.0637 11.1136 47.6092 11.1136C47.2588 11.1136 46.9783 11.0556 46.7676 10.9396C46.5569 10.8213 46.3947 10.6875 46.2811 10.5384C46.1674 10.3868 46.0798 10.2614 46.0183 10.1619H45.9189V11H45.1092ZM45.9331 8.27273C45.9331 8.68466 45.9934 9.04806 46.1142 9.36293C46.2349 9.67543 46.4113 9.92045 46.6433 10.098C46.8753 10.2732 47.1594 10.3608 47.4956 10.3608C47.8459 10.3608 48.1383 10.2685 48.3727 10.0838C48.6094 9.89678 48.787 9.64583 48.9054 9.33097C49.0261 9.01373 49.0865 8.66098 49.0865 8.27273C49.0865 7.8892 49.0273 7.54356 48.9089 7.2358C48.7929 6.92566 48.6165 6.68063 48.3798 6.50071C48.1454 6.31842 47.8507 6.22727 47.4956 6.22727C47.1547 6.22727 46.8682 6.31368 46.6362 6.48651C46.4042 6.65696 46.229 6.89607 46.1106 7.20384C45.9922 7.50923 45.9331 7.86553 45.9331 8.27273ZM51.551 13.0455C51.4089 13.0455 51.2823 13.0336 51.171 13.0099C51.0597 12.9886 50.9828 12.9673 50.9402 12.946L51.1532 12.2074C51.3568 12.2595 51.5368 12.2784 51.693 12.2642C51.8493 12.25 51.9877 12.1802 52.1085 12.0547C52.2316 11.9316 52.344 11.7315 52.4458 11.4545L52.6021 11.0284L50.585 5.54545H51.4941L52.9998 9.89205H53.0566L54.5623 5.54545H55.4714L53.1561 11.7955C53.0519 12.0772 52.9229 12.3104 52.769 12.495C52.6151 12.6821 52.4364 12.8205 52.2328 12.9105C52.0315 13.0005 51.8043 13.0455 51.551 13.0455Z" fill="#CCCCCC"/>
<path d="M5.486 21.411C6.20533 21.4977 6.76867 21.7403 7.176 22.139C7.592 22.5377 7.8 23.036 7.8 23.634C7.8 24.31 7.54433 24.8733 7.033 25.324C6.53033 25.7747 5.87167 26 5.057 26H0.702V16.9H4.667C5.48167 16.9 6.14033 17.1297 6.643 17.589C7.15433 18.0483 7.41 18.616 7.41 19.292C7.41 19.838 7.241 20.2973 6.903 20.67C6.565 21.0427 6.09267 21.2897 5.486 21.411ZM4.485 18.499H2.509V20.683H4.485C4.849 20.683 5.13933 20.579 5.356 20.371C5.58133 20.163 5.694 19.8987 5.694 19.578C5.694 19.2573 5.58133 18.9973 5.356 18.798C5.13933 18.5987 4.849 18.499 4.485 18.499ZM2.509 24.401H4.732C5.096 24.401 5.38633 24.3013 5.603 24.102C5.81967 23.894 5.928 23.6297 5.928 23.309C5.928 22.9883 5.81967 22.7283 5.603 22.529C5.38633 22.321 5.096 22.217 4.732 22.217H2.509V24.401ZM9.64478 25.129C8.96011 24.4617 8.61778 23.634 8.61778 22.646C8.61778 21.658 8.96011 20.8303 9.64478 20.163C10.3294 19.4957 11.1831 19.162 12.2058 19.162C13.2284 19.162 14.0821 19.4957 14.7668 20.163C15.4514 20.8303 15.7938 21.658 15.7938 22.646C15.7938 23.634 15.4514 24.4617 14.7668 25.129C14.0821 25.7963 13.2284 26.13 12.2058 26.13C11.1831 26.13 10.3294 25.7963 9.64478 25.129ZM10.4378 22.646C10.4378 23.1833 10.6068 23.634 10.9448 23.998C11.2828 24.3533 11.7031 24.531 12.2058 24.531C12.7084 24.531 13.1288 24.3533 13.4668 23.998C13.8048 23.634 13.9738 23.1833 13.9738 22.646C13.9738 22.1087 13.8048 21.6623 13.4668 21.307C13.1288 20.9517 12.7084 20.774 12.2058 20.774C11.7031 20.774 11.2828 20.956 10.9448 21.32C10.6068 21.6753 10.4378 22.1173 10.4378 22.646ZM17.492 20.839H16.14V19.292H17.492V17.316L19.247 16.77V19.292H22.393V17.316L24.148 16.77V19.292H25.877V20.839H24.148V23.504C24.148 24.1367 24.4643 24.453 25.097 24.453H25.877V26H25.097C24.1783 26 23.498 25.7877 23.056 25.363C22.614 24.9297 22.393 24.2753 22.393 23.4V20.839H19.247V23.504C19.247 24.1367 19.5633 24.453 20.196 24.453H20.989V26H20.196C19.2773 26 18.597 25.7877 18.155 25.363C17.713 24.9297 17.492 24.2753 17.492 23.4V20.839ZM28.7871 26H27.0321V16.38H28.7871V26ZM33.4562 19.162C34.5829 19.162 35.4842 19.5693 36.1602 20.384C36.8449 21.19 37.0962 22.152 36.9142 23.27H31.7402C31.8615 23.6773 32.0825 24.0067 32.4032 24.258C32.7325 24.5007 33.1225 24.622 33.5732 24.622C34.3359 24.622 34.8905 24.31 35.2372 23.686L36.6802 24.336C36.3769 24.882 35.9479 25.3197 35.3932 25.649C34.8472 25.9697 34.2232 26.13 33.5212 26.13C32.4985 26.13 31.6449 25.7963 30.9602 25.129C30.2755 24.4617 29.9332 23.634 29.9332 22.646C29.9332 21.658 30.2712 20.8303 30.9472 20.163C31.6232 19.4957 32.4595 19.162 33.4562 19.162ZM33.4562 20.67C33.0662 20.67 32.7152 20.787 32.4032 21.021C32.0999 21.2463 31.8875 21.5497 31.7662 21.931H35.1592C35.0379 21.5497 34.8255 21.2463 34.5222 21.021C34.2189 20.787 33.8635 20.67 33.4562 20.67ZM45.8498 25.532L45.4988 26.13C44.8314 25.7313 44.2378 25.3413 43.7178 24.96C42.9551 25.74 41.9411 26.13 40.6758 26.13C39.8698 26.13 39.1894 25.922 38.6348 25.506C38.0888 25.09 37.8158 24.5137 37.8158 23.777C37.8158 23.205 37.9848 22.7327 38.3228 22.36C38.6608 21.9873 39.1331 21.645 39.7398 21.333C39.0984 20.4663 38.7778 19.6863 38.7778 18.993C38.7778 18.3603 38.9858 17.8317 39.4018 17.407C39.8264 16.9823 40.3724 16.77 41.0398 16.77C41.6724 16.77 42.1838 16.965 42.5738 17.355C42.9724 17.7363 43.1718 18.2173 43.1718 18.798C43.1718 19.1273 43.1068 19.4307 42.9768 19.708C42.8468 19.9853 42.6518 20.2323 42.3918 20.449C42.1404 20.6657 41.8891 20.852 41.6378 21.008C41.3864 21.1553 41.0788 21.3157 40.7148 21.489C41.4428 22.3123 42.4048 23.1617 43.6008 24.037C44.1294 23.205 44.2638 22.1997 44.0038 21.021H44.7058C44.9831 22.321 44.8011 23.4563 44.1598 24.427C44.7058 24.817 45.2691 25.1853 45.8498 25.532ZM41.0268 17.42C40.5848 17.42 40.2164 17.5717 39.9218 17.875C39.6358 18.1783 39.4928 18.564 39.4928 19.032C39.4928 19.6127 39.7788 20.28 40.3508 21.034C40.6974 20.852 40.9661 20.7047 41.1568 20.592C41.3561 20.4707 41.5728 20.319 41.8068 20.137C42.0408 19.9463 42.2098 19.747 42.3138 19.539C42.4178 19.3223 42.4698 19.084 42.4698 18.824C42.4698 18.408 42.3354 18.07 42.0668 17.81C41.8068 17.55 41.4601 17.42 41.0268 17.42ZM40.7018 25.48C41.7158 25.48 42.5348 25.1767 43.1588 24.57C41.8501 23.582 40.8361 22.659 40.1168 21.801C39.6141 22.0783 39.2241 22.3687 38.9468 22.672C38.6781 22.9667 38.5438 23.3307 38.5438 23.764C38.5438 24.284 38.7388 24.7 39.1288 25.012C39.5274 25.324 40.0518 25.48 40.7018 25.48ZM53.7761 25.532L55.0111 19.292H56.6621L55.2191 26H52.3071L51.2151 19.734L50.1101 26H47.1981L45.7551 19.292H47.4191L48.6541 25.519L49.6291 19.292H52.7881L53.7761 25.532ZM57.23 17.433C57.23 17.1383 57.334 16.8913 57.542 16.692C57.75 16.484 58.0013 16.38 58.296 16.38C58.582 16.38 58.829 16.484 59.037 16.692C59.245 16.8913 59.349 17.1383 59.349 17.433C59.349 17.719 59.245 17.966 59.037 18.174C58.829 18.382 58.582 18.486 58.296 18.486C58.0013 18.486 57.75 18.382 57.542 18.174C57.334 17.966 57.23 17.719 57.23 17.433ZM59.167 26H57.412V19.292H59.167V26ZM62.3281 19.292V21.034C62.5448 20.2193 62.8784 19.6777 63.3291 19.409C63.7884 19.1403 64.2911 19.0927 64.8371 19.266V20.93C64.1351 20.6873 63.5414 20.7003 63.0561 20.969C62.5708 21.229 62.3281 21.6537 62.3281 22.243V26H60.5731V19.292H62.3281ZM68.5588 19.162C69.6854 19.162 70.5868 19.5693 71.2628 20.384C71.9474 21.19 72.1988 22.152 72.0168 23.27H66.8428C66.9641 23.6773 67.1851 24.0067 67.5058 24.258C67.8351 24.5007 68.2251 24.622 68.6758 24.622C69.4384 24.622 69.9931 24.31 70.3398 23.686L71.7828 24.336C71.4794 24.882 71.0504 25.3197 70.4958 25.649C69.9498 25.9697 69.3258 26.13 68.6238 26.13C67.6011 26.13 66.7474 25.7963 66.0628 25.129C65.3781 24.4617 65.0358 23.634 65.0358 22.646C65.0358 21.658 65.3738 20.8303 66.0498 20.163C66.7258 19.4957 67.5621 19.162 68.5588 19.162ZM68.5588 20.67C68.1688 20.67 67.8178 20.787 67.5058 21.021C67.2024 21.2463 66.9901 21.5497 66.8688 21.931H70.2618C70.1404 21.5497 69.9281 21.2463 69.6248 21.021C69.3214 20.787 68.9661 20.67 68.5588 20.67Z" fill="white"/>
</svg>
